<svg viewBox="0 0 640 400" data-background-color="#ffffff" preserveAspectRatio="xMidYMid meet" height="400" width="640" xmlns="http://www.w3.org/2000/svg" xmlns:xlink="http://www.w3.org/1999/xlink"><rect width="640" height="400" x="0" y="0" opacity="1" fill="#ffffff" data-fill-palette-color="background" id="background"></rect><g id="tight-bounds" transform="matrix(1,0,0,1,122.24000000000001,76.4)"><svg viewBox="0 0 395.52 247.2" height="247.2" width="395.52"><g><svg></svg></g><g><svg viewBox="0 0 395.52 247.2" height="247.2" width="395.52"><g transform="matrix(1,0,0,1,75.54432,106.29067092569382)"><svg viewBox="0 0 244.43135999999998 34.618658148612354" height="34.618658148612354" width="244.43135999999998"><g><svg viewBox="0 0 244.43135999999998 34.618658148612354" height="34.618658148612354" width="244.43135999999998"><g><svg viewBox="0 0 244.43135999999998 34.618658148612354" height="34.618658148612354" width="244.43135999999998"><g><svg viewBox="0 0 244.43135999999998 34.618658148612354" height="34.618658148612354" width="244.43135999999998"><g><svg viewBox="0 0 244.43135999999998 34.618658148612354" height="34.618658148612354" width="244.43135999999998"><g><svg viewBox="0 0 244.43135999999998 34.618658148612354" height="34.618658148612354" width="244.43135999999998"><g transform="matrix(1,0,0,1,0,0)"><svg width="244.43135999999998" viewBox="1.649999976158142 -38.79999923706055 279.2200012207031 39.54999923706055" height="34.618658148612354" data-palette-color="#374151"><path d="M12.35-3.45L12.35-3.45Q19.95-3.45 19.95-8.65L19.95-8.65Q19.95-10.25 19.28-11.38 18.6-12.5 17.45-13.33 16.3-14.15 14.83-14.75 13.35-15.35 11.7-15.95L11.7-15.95Q9.8-16.6 8.1-17.43 6.4-18.25 5.15-19.38 3.9-20.5 3.18-22.05 2.45-23.6 2.45-25.8L2.45-25.8Q2.45-30.35 5.55-32.9 8.65-35.45 14.1-35.45L14.1-35.45Q17.25-35.45 19.83-34.77 22.4-34.1 23.6-33.3L23.6-33.3 22.05-29.35Q21-30 18.93-30.63 16.85-31.25 14.1-31.25L14.1-31.25Q12.7-31.25 11.5-30.95 10.3-30.65 9.4-30.05 8.5-29.45 7.98-28.53 7.45-27.6 7.45-26.35L7.45-26.35Q7.45-24.95 8-24 8.55-23.05 9.55-22.33 10.55-21.6 11.88-21 13.2-20.4 14.8-19.8L14.8-19.8Q17.05-18.9 18.93-18 20.8-17.1 22.18-15.85 23.55-14.6 24.3-12.88 25.05-11.15 25.05-8.7L25.05-8.7Q25.05-4.15 21.73-1.7 18.4 0.75 12.35 0.75L12.35 0.75Q10.3 0.75 8.58 0.48 6.85 0.2 5.5-0.18 4.15-0.55 3.18-0.98 2.2-1.4 1.65-1.7L1.65-1.7 3.1-5.7Q4.25-5.05 6.6-4.25 8.95-3.45 12.35-3.45ZM34.95-34.05L34.95-26 44.8-26 44.8-22.1 34.95-22.1 34.95-10.1Q34.95-8.15 35.25-6.88 35.55-5.6 36.15-4.88 36.75-4.15 37.65-3.85 38.55-3.55 39.75-3.55L39.75-3.55Q41.85-3.55 43.12-4.03 44.4-4.5 44.9-4.7L44.9-4.7 45.8-0.85Q45.1-0.5 43.35 0.03 41.6 0.55 39.35 0.55L39.35 0.55Q36.7 0.55 34.97-0.13 33.25-0.8 32.2-2.15 31.15-3.5 30.72-5.48 30.3-7.45 30.3-10.05L30.3-10.05 30.3-33.25 34.95-34.05ZM48.75-12.95L48.75-12.95Q48.75-16.4 49.75-18.98 50.75-21.55 52.4-23.25 54.05-24.95 56.2-25.8 58.35-26.65 60.6-26.65L60.6-26.65Q65.85-26.65 68.65-23.38 71.45-20.1 71.45-13.4L71.45-13.4Q71.45-13.1 71.45-12.63 71.45-12.15 71.4-11.75L71.4-11.75 53.6-11.75Q53.9-7.7 55.95-5.6 58-3.5 62.35-3.5L62.35-3.5Q64.8-3.5 66.47-3.93 68.15-4.35 69-4.75L69-4.75 69.65-0.85Q68.8-0.4 66.67 0.1 64.55 0.6 61.85 0.6L61.85 0.6Q58.45 0.6 55.97-0.43 53.5-1.45 51.9-3.25 50.3-5.05 49.52-7.53 48.75-10 48.75-12.95ZM53.7-15.5L66.6-15.5Q66.65-18.65 65.02-20.68 63.4-22.7 60.55-22.7L60.55-22.7Q58.95-22.7 57.72-22.08 56.5-21.45 55.65-20.45 54.8-19.45 54.32-18.15 53.85-16.85 53.7-15.5L53.7-15.5ZM88.29-38.8L88.29-38.8Q90.34-38.8 91.82-38.5 93.29-38.2 93.89-37.95L93.89-37.95 93.04-33.95Q92.44-34.25 91.34-34.52 90.24-34.8 88.64-34.8L88.64-34.8Q85.39-34.8 84.09-33.02 82.79-31.25 82.79-28.25L82.79-28.25 82.79-26 92.79-26 92.79-22.1 82.79-22.1 82.79 0 78.14 0 78.14-28.35Q78.14-33.35 80.59-36.08 83.04-38.8 88.29-38.8ZM106.24-3.35L106.24-3.35Q107.89-3.35 109.17-3.43 110.44-3.5 111.29-3.7L111.29-3.7 111.29-11.45Q110.79-11.7 109.67-11.88 108.54-12.05 106.94-12.05L106.94-12.05Q105.89-12.05 104.72-11.9 103.54-11.75 102.57-11.28 101.59-10.8 100.94-9.98 100.29-9.15 100.29-7.8L100.29-7.8Q100.29-5.3 101.89-4.33 103.49-3.35 106.24-3.35ZM105.84-26.65L105.84-26.65Q108.64-26.65 110.57-25.93 112.49-25.2 113.67-23.88 114.84-22.55 115.34-20.73 115.84-18.9 115.84-16.7L115.84-16.7 115.84-0.45Q115.24-0.35 114.17-0.18 113.09 0 111.74 0.15 110.39 0.3 108.82 0.43 107.24 0.55 105.69 0.55L105.69 0.55Q103.49 0.55 101.64 0.1 99.79-0.35 98.44-1.33 97.09-2.3 96.34-3.9 95.59-5.5 95.59-7.75L95.59-7.75Q95.59-9.9 96.47-11.45 97.34-13 98.84-13.95 100.34-14.9 102.34-15.35 104.34-15.8 106.54-15.8L106.54-15.8Q107.24-15.8 107.99-15.73 108.74-15.65 109.42-15.53 110.09-15.4 110.59-15.3 111.09-15.2 111.29-15.15L111.29-15.15 111.29-16.45Q111.29-17.6 111.04-18.73 110.79-19.85 110.14-20.73 109.49-21.6 108.37-22.13 107.24-22.65 105.44-22.65L105.44-22.65Q103.14-22.65 101.42-22.33 99.69-22 98.84-21.65L98.84-21.65 98.29-25.5Q99.19-25.9 101.29-26.28 103.39-26.65 105.84-26.65ZM123.54 0L123.54-25.25Q125.14-25.65 127.79-26.1 130.44-26.55 133.89-26.55L133.89-26.55Q136.99-26.55 139.04-25.68 141.09-24.8 142.31-23.23 143.54-21.65 144.04-19.45 144.54-17.25 144.54-14.6L144.54-14.6 144.54 0 139.89 0 139.89-13.6Q139.89-16 139.56-17.7 139.24-19.4 138.49-20.45 137.74-21.5 136.49-21.98 135.24-22.45 133.39-22.45L133.39-22.45Q132.64-22.45 131.84-22.4 131.04-22.35 130.31-22.28 129.59-22.2 129.01-22.1 128.44-22 128.19-21.95L128.19-21.95 128.19 0 123.54 0ZM168.93-4.2L184.93-4.2 184.93 0 164.08 0 164.08-34.65 168.93-34.65 168.93-4.2ZM198.53-3.35L198.53-3.35Q200.18-3.35 201.46-3.43 202.73-3.5 203.58-3.7L203.58-3.7 203.58-11.45Q203.08-11.7 201.96-11.88 200.83-12.05 199.23-12.05L199.23-12.05Q198.18-12.05 197.01-11.9 195.83-11.75 194.86-11.28 193.88-10.8 193.23-9.98 192.58-9.15 192.58-7.8L192.58-7.8Q192.58-5.3 194.18-4.33 195.78-3.35 198.53-3.35ZM198.13-26.65L198.13-26.65Q200.93-26.65 202.86-25.93 204.78-25.2 205.96-23.88 207.13-22.55 207.63-20.73 208.13-18.9 208.13-16.7L208.13-16.7 208.13-0.45Q207.53-0.35 206.46-0.18 205.38 0 204.03 0.15 202.68 0.3 201.11 0.43 199.53 0.55 197.98 0.55L197.98 0.55Q195.78 0.55 193.93 0.1 192.08-0.35 190.73-1.33 189.38-2.3 188.63-3.9 187.88-5.5 187.88-7.75L187.88-7.75Q187.88-9.9 188.76-11.45 189.63-13 191.13-13.95 192.63-14.9 194.63-15.35 196.63-15.8 198.83-15.8L198.83-15.8Q199.53-15.8 200.28-15.73 201.03-15.65 201.71-15.53 202.38-15.4 202.88-15.3 203.38-15.2 203.58-15.15L203.58-15.15 203.58-16.45Q203.58-17.6 203.33-18.73 203.08-19.85 202.43-20.73 201.78-21.6 200.66-22.13 199.53-22.65 197.73-22.65L197.73-22.65Q195.43-22.65 193.71-22.33 191.98-22 191.13-21.65L191.13-21.65 190.58-25.5Q191.48-25.9 193.58-26.28 195.68-26.65 198.13-26.65ZM221.88-3.35L221.88-3.35Q224.73-3.35 226.1-4.1 227.48-4.85 227.48-6.5L227.48-6.5Q227.48-8.2 226.13-9.2 224.78-10.2 221.68-11.45L221.68-11.45Q220.18-12.05 218.8-12.68 217.43-13.3 216.43-14.15 215.43-15 214.83-16.2 214.23-17.4 214.23-19.15L214.23-19.15Q214.23-22.6 216.78-24.63 219.33-26.65 223.73-26.65L223.73-26.65Q224.83-26.65 225.93-26.53 227.03-26.4 227.98-26.23 228.93-26.05 229.65-25.85 230.38-25.65 230.78-25.5L230.78-25.5 229.93-21.5Q229.18-21.9 227.58-22.33 225.98-22.75 223.73-22.75L223.73-22.75Q221.78-22.75 220.33-21.98 218.88-21.2 218.88-19.55L218.88-19.55Q218.88-18.7 219.2-18.05 219.53-17.4 220.2-16.88 220.88-16.35 221.88-15.9 222.88-15.45 224.28-14.95L224.28-14.95Q226.13-14.25 227.58-13.58 229.03-12.9 230.05-12 231.08-11.1 231.63-9.83 232.18-8.55 232.18-6.7L232.18-6.7Q232.18-3.1 229.5-1.25 226.83 0.6 221.88 0.6L221.88 0.6Q218.43 0.6 216.48 0.03 214.53-0.55 213.83-0.85L213.83-0.85 214.68-4.85Q215.48-4.55 217.23-3.95 218.98-3.35 221.88-3.35ZM236.68-12.95L236.68-12.95Q236.68-16.4 237.68-18.98 238.68-21.55 240.33-23.25 241.98-24.95 244.13-25.8 246.28-26.65 248.53-26.65L248.53-26.65Q253.78-26.65 256.58-23.38 259.38-20.1 259.38-13.4L259.38-13.4Q259.38-13.1 259.38-12.63 259.38-12.15 259.33-11.75L259.33-11.75 241.53-11.75Q241.83-7.7 243.88-5.6 245.93-3.5 250.28-3.5L250.28-3.5Q252.73-3.5 254.4-3.93 256.08-4.35 256.93-4.75L256.93-4.75 257.58-0.85Q256.73-0.4 254.6 0.1 252.48 0.6 249.78 0.6L249.78 0.6Q246.38 0.6 243.9-0.43 241.43-1.45 239.83-3.25 238.23-5.05 237.45-7.53 236.68-10 236.68-12.95ZM241.63-15.5L254.53-15.5Q254.58-18.65 252.95-20.68 251.33-22.7 248.48-22.7L248.48-22.7Q246.88-22.7 245.65-22.08 244.43-21.45 243.58-20.45 242.73-19.45 242.25-18.15 241.78-16.85 241.63-15.5L241.63-15.5ZM275.67-26.55L275.67-26.55Q276.27-26.55 277.05-26.48 277.82-26.4 278.57-26.28 279.32-26.15 279.95-26.03 280.57-25.9 280.87-25.8L280.87-25.8 280.07-21.75Q279.52-21.95 278.25-22.23 276.97-22.5 274.97-22.5L274.97-22.5Q273.67-22.5 272.4-22.23 271.12-21.95 270.72-21.85L270.72-21.85 270.72 0 266.07 0 266.07-24.9Q267.72-25.5 270.17-26.03 272.62-26.55 275.67-26.55Z" opacity="1" transform="matrix(1,0,0,1,0,0)" fill="#374151" class="undefined-text-0" data-fill-palette-color="primary" id="text-0"></path></svg></g></svg></g></svg></g></svg></g></svg></g></svg></g></svg></g><path d="M216.13 100.291L216.13 36.99 389.35 36.99 389.35 210.21 216.13 210.21 216.13 146.909 219.252 146.909 219.252 207.088 386.228 207.088 386.228 40.112 219.252 40.112 219.252 100.291Z" fill="#374151" stroke="transparent" data-fill-palette-color="primary"></path></svg></g></svg><rect width="395.52" height="247.2" fill="none" stroke="none" visibility="hidden"></rect></g><defs></defs></svg>